<svg width="26" height="26" viewBox="0 0 26 26" fill="none" xmlns="http://www.w3.org/2000/svg">
<path d="M23.6225 10.8784H22.7498V10.8334H12.9998V15.1667H19.1223C18.2291 17.6893 15.829 19.5001 12.9998 19.5001C9.41021 19.5001 6.49984 16.5897 6.49984 13.0001C6.49984 9.41046 9.41021 6.50008 12.9998 6.50008C14.6568 6.50008 16.1643 7.12516 17.312 8.14621L20.3763 5.082C18.4414 3.27879 15.8533 2.16675 12.9998 2.16675C7.01713 2.16675 2.1665 7.01737 2.1665 13.0001C2.1665 18.9828 7.01713 23.8334 12.9998 23.8334C18.9825 23.8334 23.8332 18.9828 23.8332 13.0001C23.8332 12.2737 23.7584 11.5647 23.6225 10.8784Z" fill="#FFC107"/>
<path d="M3.41553 7.95771L6.97482 10.568C7.9379 8.18358 10.2703 6.50008 12.9998 6.50008C14.6567 6.50008 16.1642 7.12516 17.312 8.14621L20.3762 5.082C18.4414 3.27879 15.8533 2.16675 12.9998 2.16675C8.83869 2.16675 5.23011 4.51596 3.41553 7.95771Z" fill="#FF3D00"/>
<path d="M12.9998 23.8335C15.7981 23.8335 18.3407 22.7626 20.2631 21.0211L16.9101 18.1839C15.7859 19.0388 14.4122 19.5012 12.9998 19.5001C10.1821 19.5001 7.78955 17.7034 6.88822 15.196L3.35547 17.9179C5.14839 21.4263 8.78947 23.8335 12.9998 23.8335Z" fill="#4CAF50"/>
<path d="M23.6226 10.8782H22.75V10.8333H13V15.1666H19.1225C18.6952 16.3671 17.9256 17.4162 16.9087 18.1842L16.9103 18.1831L20.2632 21.0204C20.026 21.236 23.8333 18.4166 23.8333 12.9999C23.8333 12.2735 23.7586 11.5645 23.6226 10.8782Z" fill="#1976D2"/>
</svg>
