<?xml version="1.0" standalone="no"?>
<!DOCTYPE svg PUBLIC "-//W3C//DTD SVG 20010904//EN"
 "http://www.w3.org/TR/2001/REC-SVG-20010904/DTD/svg10.dtd">
<svg version="1.0" xmlns="http://www.w3.org/2000/svg"
 width="1500.000000pt" height="1500.000000pt" viewBox="0 0 1500.000000 1500.000000"
 preserveAspectRatio="xMidYMid meet">

<g transform="translate(0.000000,1500.000000) scale(0.100000,-0.100000)"
fill="#000000" stroke="none">
<path d="M9710 13382 c-14 -2 -31 -8 -37 -14 -7 -6 -64 -14 -127 -19 -84 -6
-125 -14 -153 -29 -22 -11 -57 -20 -83 -20 -27 0 -58 -8 -78 -20 -17 -11 -51
-23 -75 -27 -23 -3 -53 -14 -67 -24 -21 -15 -40 -21 -91 -28 -3 -1 -16 -10
-29 -21 -13 -11 -30 -20 -40 -20 -9 0 -31 -11 -50 -25 -19 -14 -41 -25 -50
-25 -9 0 -25 -8 -36 -18 -10 -9 -31 -23 -46 -29 -16 -7 -28 -16 -28 -21 0 -5
-24 -24 -52 -42 -29 -18 -63 -42 -74 -54 -12 -12 -34 -30 -50 -41 -15 -11 -41
-35 -58 -54 -17 -18 -64 -68 -103 -109 -40 -42 -73 -81 -73 -87 0 -5 -10 -22
-23 -37 -46 -56 -112 -158 -121 -186 -4 -11 -13 -23 -21 -26 -8 -3 -15 -14
-15 -24 0 -11 -11 -40 -25 -66 -14 -26 -25 -60 -25 -75 0 -15 -11 -50 -26 -77
-25 -49 -25 -51 -26 -299 -1 -234 0 -253 20 -290 11 -22 23 -63 27 -90 4 -28
15 -62 26 -77 10 -15 19 -36 19 -47 0 -29 11 -51 25 -51 15 0 25 -22 25 -52 0
-12 9 -30 20 -42 37 -38 70 -79 70 -87 0 -14 109 -141 147 -170 21 -15 45 -35
53 -42 8 -8 30 -22 48 -31 17 -9 32 -20 32 -25 0 -5 14 -14 32 -20 17 -6 39
-18 48 -26 10 -9 27 -17 39 -20 12 -2 33 -13 47 -24 13 -10 42 -22 64 -26 22
-4 44 -13 48 -22 5 -8 32 -18 63 -22 30 -4 70 -16 89 -26 30 -16 57 -19 200
-19 150 1 169 3 205 22 22 12 52 22 67 22 14 0 40 11 56 25 17 14 32 25 35 25
11 0 102 96 130 136 15 22 27 51 27 65 0 14 9 42 20 64 49 97 -4 329 -96 418
-66 64 -80 75 -117 90 -20 9 -37 20 -37 26 0 5 -19 12 -42 15 -24 4 -71 12
-105 17 -35 6 -71 8 -80 4 -10 -4 -31 -9 -48 -11 -16 -2 -49 -6 -73 -8 -23 -3
-47 -8 -52 -11 -14 -9 -72 4 -65 14 2 5 -7 19 -21 32 -13 12 -31 36 -39 51 -8
15 -22 42 -31 58 -22 43 -17 279 7 306 9 11 20 30 24 44 9 28 17 38 105 128
33 34 65 60 70 57 5 -3 15 4 23 15 7 11 29 25 47 31 18 7 41 20 50 29 9 9 39
20 65 23 27 4 56 14 65 22 23 21 90 28 270 27 222 -1 265 -5 287 -25 11 -9 40
-21 65 -25 25 -5 55 -19 66 -30 12 -12 33 -22 47 -22 14 0 30 -9 37 -20 7 -11
18 -20 24 -20 6 0 28 -13 49 -30 21 -16 42 -30 46 -30 12 0 259 -247 259 -259
0 -6 9 -15 19 -21 11 -5 23 -20 27 -32 4 -13 17 -36 30 -51 13 -16 24 -34 24
-40 0 -7 9 -18 20 -25 11 -7 20 -20 20 -30 0 -10 11 -33 25 -52 14 -19 25 -44
25 -56 0 -12 8 -32 19 -45 10 -13 22 -44 26 -69 4 -25 16 -51 25 -57 13 -9 20
-33 25 -85 4 -40 16 -92 27 -116 18 -40 19 -63 16 -300 -3 -225 -5 -260 -20
-283 -10 -14 -21 -53 -24 -87 -4 -39 -14 -70 -25 -84 -11 -11 -19 -33 -19 -47
0 -23 -30 -96 -66 -161 -7 -14 -21 -41 -30 -60 -9 -19 -22 -39 -30 -43 -8 -4
-14 -16 -14 -25 0 -10 -18 -37 -40 -61 -23 -24 -48 -57 -57 -74 -18 -35 -199
-216 -261 -262 -23 -16 -58 -45 -79 -64 -44 -39 -130 -96 -160 -105 -12 -4
-24 -13 -27 -21 -3 -8 -21 -17 -41 -21 -19 -3 -40 -14 -45 -24 -5 -10 -29 -22
-53 -29 -24 -6 -50 -17 -57 -26 -7 -8 -24 -15 -38 -15 -13 0 -40 -10 -60 -22
-19 -12 -57 -25 -85 -29 -27 -5 -58 -16 -68 -25 -12 -10 -47 -19 -98 -24 -48
-5 -90 -16 -107 -27 -26 -16 -55 -18 -354 -18 -315 0 -327 1 -377 23 -30 12
-72 22 -100 22 -31 0 -66 9 -98 25 -27 13 -63 25 -80 25 -16 0 -48 11 -70 25
-22 13 -50 25 -63 25 -12 0 -30 9 -39 20 -10 11 -30 20 -44 20 -15 0 -41 11
-57 25 -17 14 -38 25 -47 25 -9 0 -30 11 -47 25 -16 14 -35 25 -42 25 -7 0
-21 9 -31 20 -10 11 -26 20 -35 20 -10 0 -20 6 -23 14 -6 15 -124 96 -140 96
-4 0 -6 4 -2 9 3 6 -4 15 -17 22 -37 20 -264 255 -278 288 -7 17 -16 31 -20
31 -4 0 -13 14 -20 30 -7 17 -18 30 -24 30 -6 0 -20 14 -31 32 -11 17 -29 46
-40 63 -40 63 -60 90 -77 103 -10 7 -18 19 -18 26 0 7 -9 21 -20 31 -11 10
-22 26 -26 37 -3 10 -15 29 -27 42 -39 42 -67 77 -68 87 -1 5 -2 12 -3 17 -1
8 -17 27 -81 95 -25 27 -52 61 -60 76 -16 32 -67 91 -137 163 -27 26 -48 51
-48 56 0 5 -11 14 -25 20 -14 6 -25 16 -25 21 0 13 -56 71 -68 71 -6 0 -13 9
-17 19 -3 11 -15 23 -25 26 -10 3 -22 15 -25 26 -4 10 -11 19 -16 19 -5 0 -32
21 -59 48 -61 57 -105 92 -118 92 -6 0 -31 20 -56 45 -26 25 -51 45 -56 45 -5
0 -17 11 -26 25 -9 14 -22 25 -29 25 -6 0 -20 9 -30 20 -10 11 -27 22 -38 26
-12 4 -34 19 -49 34 -15 16 -48 38 -72 49 -24 12 -50 29 -57 37 -7 8 -26 22
-43 30 -55 27 -94 50 -111 67 -9 9 -26 17 -37 17 -11 0 -33 11 -50 25 -16 14
-38 25 -48 25 -11 0 -27 9 -37 19 -10 11 -31 23 -48 27 -16 3 -39 15 -50 24
-11 10 -33 20 -50 22 -16 1 -37 11 -46 20 -9 10 -32 21 -50 24 -19 4 -54 18
-79 30 -25 13 -53 24 -63 24 -10 0 -30 9 -45 19 -15 11 -49 22 -75 26 -31 4
-52 13 -60 26 -9 15 -23 19 -63 19 -37 0 -59 6 -78 21 -18 14 -47 23 -89 26
-34 3 -75 13 -92 23 -17 10 -63 20 -108 24 -46 4 -90 14 -110 25 -25 15 -61
20 -170 24 -79 3 -144 10 -151 16 -24 20 -176 31 -436 31 -274 -1 -454 -12
-476 -31 -8 -7 -64 -14 -132 -17 -88 -3 -126 -9 -155 -24 -22 -11 -70 -21
-118 -25 -74 -6 -109 -19 -109 -42 0 -11 103 -21 219 -21 108 -1 180 -12 191
-30 4 -7 45 -15 101 -19 62 -5 103 -13 120 -24 15 -10 56 -20 95 -24 38 -3 83
-13 99 -23 17 -10 53 -20 80 -24 28 -3 62 -15 77 -26 15 -11 43 -20 61 -20 19
0 46 -9 60 -20 14 -11 46 -24 72 -29 25 -5 53 -15 63 -24 9 -8 31 -18 49 -22
17 -3 37 -13 44 -21 6 -8 31 -19 55 -25 23 -6 50 -20 60 -30 9 -10 30 -19 45
-19 16 0 39 -11 54 -24 14 -13 41 -27 60 -30 19 -4 35 -11 35 -16 0 -5 16 -16
35 -24 19 -8 35 -19 35 -25 0 -5 13 -12 29 -16 15 -3 38 -17 50 -30 11 -14 29
-25 39 -25 11 0 27 -9 37 -20 10 -11 24 -20 31 -20 8 0 21 -11 30 -25 10 -15
26 -25 40 -25 13 0 28 -9 34 -19 5 -11 20 -23 32 -27 11 -3 42 -26 67 -50 25
-24 50 -44 56 -44 9 0 27 -13 98 -72 27 -22 101 -91 234 -219 146 -141 333
-353 333 -378 0 -6 18 -29 39 -52 22 -22 54 -65 71 -95 17 -30 42 -64 55 -76
14 -12 25 -29 25 -39 0 -10 11 -31 25 -47 14 -17 25 -35 25 -41 0 -5 8 -15 19
-20 10 -6 22 -26 25 -46 4 -19 15 -39 26 -45 12 -6 20 -21 20 -35 0 -14 9 -34
20 -45 11 -11 26 -34 35 -52 14 -33 19 -40 62 -108 12 -19 25 -47 28 -62 4
-16 13 -28 21 -28 7 0 16 -12 19 -27 4 -16 11 -35 16 -43 5 -8 17 -28 27 -44
9 -16 25 -37 35 -48 9 -10 17 -25 17 -32 0 -8 11 -27 25 -42 14 -15 25 -37 25
-50 0 -13 9 -28 19 -34 11 -5 24 -25 31 -44 6 -19 17 -37 25 -40 8 -3 15 -12
15 -21 0 -8 8 -23 19 -34 23 -23 54 -84 38 -74 -7 4 -6 0 2 -10 7 -9 17 -15
21 -12 5 3 12 -5 15 -17 4 -13 15 -32 25 -43 10 -11 22 -32 25 -48 4 -15 16
-32 26 -38 11 -5 19 -15 19 -20 0 -6 11 -24 25 -41 14 -16 25 -38 25 -49 0
-11 6 -22 14 -25 14 -5 76 -95 76 -110 0 -5 20 -30 44 -55 24 -26 47 -56 50
-67 4 -11 17 -31 29 -45 12 -13 37 -43 56 -65 19 -23 38 -39 43 -36 4 3 8 -1
8 -9 0 -13 97 -125 148 -171 13 -12 64 -60 114 -108 50 -49 92 -88 95 -88 3 0
16 -10 29 -22 42 -40 62 -57 91 -72 15 -8 45 -30 65 -49 21 -19 51 -40 68 -47
16 -7 30 -16 30 -21 0 -5 11 -11 24 -15 14 -3 32 -17 41 -30 9 -14 25 -24 39
-24 13 0 35 -11 50 -25 15 -14 36 -25 46 -25 10 0 22 -5 25 -11 4 -5 31 -21
60 -33 29 -13 56 -29 59 -35 4 -6 17 -11 29 -11 12 0 28 -9 35 -20 7 -12 28
-22 53 -26 22 -4 47 -13 55 -22 8 -8 34 -19 57 -24 23 -5 49 -15 57 -23 11
-10 109 -35 137 -35 2 0 3 -6 3 -14 0 -9 19 -16 58 -21 31 -3 68 -14 81 -22
13 -9 58 -19 99 -24 45 -5 82 -15 93 -25 12 -11 47 -18 111 -23 51 -4 104 -13
117 -20 46 -25 161 -32 527 -32 382 -1 448 3 498 28 16 8 69 19 118 23 52 5
100 15 114 25 14 9 54 19 89 24 37 4 72 15 83 24 10 9 30 17 43 17 36 0 87 17
105 34 8 9 30 16 48 16 20 0 40 8 50 19 10 10 33 22 52 26 19 3 56 17 81 31
25 13 55 24 67 24 12 0 27 9 34 20 7 12 23 20 38 20 14 0 39 11 56 25 16 14
41 25 54 25 14 0 27 7 30 15 3 8 25 20 48 27 22 7 46 20 53 29 7 9 26 19 42
22 17 4 40 16 51 27 11 11 28 20 38 20 10 0 33 11 52 25 19 14 38 25 42 25 4
0 17 9 28 20 11 11 29 20 40 20 10 0 24 9 30 19 5 11 20 23 32 27 30 8 118 65
118 75 0 4 15 12 34 19 18 6 42 20 51 30 10 11 24 20 31 20 7 0 18 9 24 20 6
11 21 22 35 26 13 3 31 14 41 25 9 10 23 19 30 19 7 0 19 9 27 20 8 11 29 25
48 31 19 6 39 17 44 23 18 20 72 54 109 70 20 8 39 22 42 31 4 9 18 15 36 15
18 0 37 9 51 24 13 14 33 24 50 24 15 0 36 7 45 15 10 9 42 22 72 28 30 7 64
20 75 29 11 10 44 20 74 23 30 4 62 13 71 22 11 10 53 20 111 26 52 6 97 15
100 20 11 19 155 31 331 27 171 -3 178 -4 193 -25 11 -16 26 -23 49 -23 19 0
46 -10 66 -25 19 -14 41 -25 49 -25 9 0 38 -20 65 -45 26 -25 51 -45 55 -45 5
0 89 -87 140 -145 10 -11 24 -34 30 -52 7 -18 19 -38 27 -44 8 -6 14 -24 14
-40 0 -16 9 -37 21 -48 19 -17 23 -37 30 -151 13 -177 0 -329 -29 -361 -12
-12 -22 -30 -22 -38 0 -25 -121 -131 -150 -131 -14 0 -45 -9 -69 -20 -55 -25
-71 -25 -123 2 -52 27 -58 34 -58 75 0 17 -4 34 -9 37 -5 3 -18 26 -30 51 -12
25 -25 43 -30 41 -5 -3 -15 2 -22 11 -12 14 -12 16 1 9 8 -5 -5 10 -30 32 -25
23 -55 41 -67 42 -12 0 -32 10 -43 23 -20 20 -30 22 -138 22 -107 0 -120 -2
-146 -22 -16 -13 -35 -23 -43 -23 -12 0 -80 -65 -149 -141 -7 -8 -16 -33 -19
-55 -3 -21 -13 -56 -20 -77 -19 -47 -19 -84 -1 -119 8 -14 17 -55 21 -90 4
-37 15 -73 26 -87 11 -13 19 -31 19 -40 0 -10 11 -32 25 -51 14 -19 25 -38 25
-43 0 -11 70 -77 82 -77 4 0 8 -5 8 -11 0 -13 69 -79 83 -79 12 0 37 -26 31
-33 -3 -2 11 -8 31 -11 20 -4 38 -13 41 -21 3 -8 20 -17 37 -21 18 -3 50 -17
73 -30 22 -13 55 -24 73 -24 18 0 44 -9 58 -20 24 -19 41 -20 251 -20 202 0
228 2 256 19 17 10 53 22 79 26 27 3 50 12 53 20 3 7 25 18 48 24 24 6 49 17
56 26 7 8 21 15 31 15 11 0 29 11 41 25 12 14 25 25 30 25 10 0 85 57 116 88
12 12 27 22 33 22 6 0 9 7 6 14 -4 9 2 17 13 21 10 3 28 20 39 38 50 78 72
107 81 107 6 0 10 11 10 25 0 14 9 34 19 44 11 11 25 38 31 59 5 22 16 45 24
51 7 6 16 28 19 47 4 20 13 44 22 54 9 10 18 35 21 56 8 59 26 124 34 124 16
0 21 97 21 364 0 266 -5 316 -34 337 -4 3 -10 30 -14 60 -3 30 -17 74 -30 98
-12 24 -23 53 -23 63 0 11 -9 31 -20 45 -11 14 -20 36 -20 49 0 23 -23 54 -41
54 -5 0 -9 16 -9 35 0 20 -6 37 -15 42 -17 10 -85 112 -85 128 0 5 -9 16 -20
23 -11 7 -20 19 -20 26 0 8 -9 18 -20 21 -11 3 -20 11 -20 16 0 5 -9 18 -19
28 -11 11 -27 34 -36 51 -20 39 -250 270 -269 270 -8 0 -24 11 -37 25 -13 13
-29 25 -36 25 -6 0 -19 10 -27 21 -16 23 -36 36 -102 69 -23 11 -44 27 -48 35
-3 8 -14 15 -24 15 -10 0 -33 11 -52 25 -19 14 -41 25 -50 25 -8 0 -23 9 -32
19 -9 10 -34 22 -56 26 -22 3 -48 15 -58 26 -9 11 -30 19 -47 19 -16 0 -45 9
-63 21 -19 11 -61 24 -95 29 -34 5 -68 15 -78 23 -10 9 -51 17 -105 21 -49 4
-110 15 -135 24 -68 25 -493 25 -566 0 -29 -10 -97 -20 -164 -23 -78 -4 -120
-11 -137 -22 -14 -8 -60 -19 -104 -24 -47 -4 -95 -16 -117 -28 -21 -11 -62
-22 -91 -24 -31 -2 -60 -11 -72 -22 -14 -13 -37 -18 -82 -19 -61 -1 -63 0 -66
26 -2 18 3 30 16 37 11 6 23 23 27 38 3 15 26 51 51 79 24 29 44 57 44 63 0 5
8 16 18 23 10 7 21 20 24 28 3 8 7 19 9 24 2 5 24 30 49 56 25 25 59 62 77 81
18 19 37 39 43 44 6 6 37 38 70 73 32 34 63 62 69 62 5 0 13 9 16 20 3 11 10
20 14 20 4 0 27 18 51 41 25 23 60 48 78 55 18 8 35 21 39 29 3 8 11 15 19 15
8 0 22 9 32 21 9 11 32 27 49 34 18 8 38 18 45 24 59 48 78 61 103 65 15 3 34
14 41 24 7 11 27 22 44 26 18 3 43 15 57 26 14 11 35 20 47 20 12 0 32 9 44
20 12 11 42 24 67 29 25 5 54 16 63 24 10 9 38 19 62 23 25 4 59 15 76 25 17
11 48 19 68 19 20 0 63 11 96 25 38 16 79 25 112 25 29 0 96 9 148 21 125 27
470 29 565 4 33 -9 106 -20 163 -25 67 -5 111 -14 128 -25 14 -9 51 -19 82
-22 32 -3 69 -14 83 -24 15 -10 53 -21 85 -25 38 -4 67 -14 81 -27 l22 -20 6
25 c4 16 -1 37 -13 59 -11 19 -23 61 -27 94 -4 33 -15 74 -26 91 -10 17 -19
45 -19 61 0 16 -11 44 -25 63 -14 19 -25 41 -25 51 0 9 -9 27 -19 40 -10 14
-26 40 -35 59 -29 60 -47 91 -67 111 -10 10 -19 26 -19 34 0 8 -8 22 -18 32
-10 10 -42 47 -72 83 -57 68 -120 131 -209 208 -29 26 -63 57 -74 70 -11 12
-26 22 -33 22 -6 0 -17 7 -25 16 -7 9 -30 23 -51 31 -21 8 -36 19 -33 24 3 4
-12 13 -33 18 -21 6 -47 20 -57 31 -10 11 -28 20 -40 20 -12 0 -33 8 -46 19
-13 10 -39 22 -57 26 -18 3 -39 13 -47 22 -8 8 -43 18 -76 23 -34 5 -69 16
-79 25 -12 11 -49 19 -107 25 -48 5 -104 15 -123 22 -54 20 -368 18 -440 -4
-30 -9 -89 -19 -130 -22 -50 -4 -79 -11 -86 -22 -7 -8 -36 -19 -65 -24 -30 -5
-72 -18 -94 -29 -21 -12 -49 -21 -60 -21 -11 0 -28 -9 -38 -20 -9 -11 -28 -20
-41 -20 -14 0 -39 -12 -56 -26 -17 -15 -32 -25 -33 -23 -1 2 -16 22 -33 44
-17 23 -35 55 -38 72 -4 17 -16 39 -27 49 -10 9 -19 25 -19 34 0 9 -11 27 -24
39 -13 13 -27 34 -30 47 -4 14 -14 33 -24 44 -9 11 -27 32 -40 47 -13 15 -34
41 -48 56 -13 15 -24 33 -24 40 0 7 -11 21 -25 31 -14 10 -25 23 -25 28 0 12
-67 78 -80 78 -5 0 -10 6 -10 13 0 15 -188 187 -205 187 -8 0 -23 12 -69 58
-13 12 -27 22 -31 22 -4 0 -19 9 -34 19 -15 11 -34 21 -41 23 -19 4 -40 24
-40 37 0 6 -3 11 -7 12 -28 3 -47 10 -71 26 -15 10 -43 25 -63 34 -20 9 -40
22 -43 28 -4 6 -18 11 -31 11 -13 0 -37 11 -53 25 -17 14 -43 25 -59 25 -17 0
-40 8 -51 19 -12 10 -43 21 -69 25 -25 3 -54 13 -63 21 -9 8 -48 19 -87 24
-39 5 -82 16 -96 25 -16 11 -54 18 -111 21 -48 2 -110 12 -139 21 -41 14 -92
18 -237 19 -102 1 -196 -1 -210 -3z"/>
<path d="M3925 8560 c-44 -4 -91 -12 -103 -19 -13 -7 -62 -16 -110 -21 -52 -6
-103 -18 -127 -30 -21 -11 -58 -20 -81 -20 -25 0 -51 -7 -66 -19 -13 -11 -46
-22 -73 -26 -28 -5 -61 -16 -74 -26 -13 -11 -35 -19 -50 -19 -14 0 -44 -12
-66 -25 -22 -14 -48 -25 -59 -25 -10 0 -31 -11 -48 -25 -16 -14 -40 -25 -52
-25 -13 0 -31 -9 -41 -20 -10 -11 -23 -20 -30 -20 -6 0 -26 -11 -45 -25 -19
-14 -41 -25 -51 -25 -9 0 -23 -10 -31 -21 -8 -12 -26 -23 -40 -25 -14 -1 -36
-13 -50 -26 -40 -38 -68 -58 -96 -71 -31 -14 -38 -20 -109 -87 -29 -28 -55
-50 -58 -50 -15 0 -187 -168 -255 -248 -61 -73 -70 -82 -81 -82 -5 0 -9 -6 -9
-12 0 -7 -18 -30 -39 -51 -21 -21 -46 -56 -56 -77 -10 -22 -22 -40 -27 -40 -5
0 -14 -13 -19 -30 -6 -16 -15 -27 -20 -24 -5 3 -14 -8 -20 -23 -14 -36 -17
-40 -61 -105 -21 -30 -38 -62 -38 -71 0 -9 -9 -22 -20 -30 -11 -8 -23 -29 -26
-48 -4 -19 -15 -43 -24 -54 -10 -11 -21 -35 -25 -53 -4 -18 -13 -36 -20 -39
-8 -2 -19 -29 -25 -58 -6 -29 -17 -58 -25 -65 -7 -6 -16 -27 -20 -48 -10 -53
-32 -74 -69 -66 -17 3 -39 13 -49 22 -23 21 -82 57 -125 77 -17 8 -32 20 -32
25 0 5 -19 14 -42 21 -23 6 -47 17 -53 25 -5 8 -31 18 -57 23 -26 4 -53 15
-62 23 -9 10 -45 18 -93 23 -43 4 -94 14 -113 22 -23 11 -79 17 -161 21 l-127
4 -11 -33 c-15 -46 -15 -64 -2 -299 6 -113 11 -258 11 -323 0 -93 4 -129 21
-175 11 -31 22 -91 25 -132 3 -43 13 -90 23 -110 11 -20 21 -67 24 -112 4 -55
11 -85 26 -105 13 -18 21 -46 22 -80 2 -34 7 -53 15 -53 15 0 34 -53 34 -95 0
-19 8 -39 20 -50 11 -10 20 -28 20 -40 0 -12 11 -43 25 -69 14 -26 25 -58 25
-71 0 -13 11 -37 25 -53 14 -17 25 -41 25 -54 0 -14 9 -33 19 -42 11 -10 23
-32 27 -50 3 -17 15 -39 25 -49 11 -10 19 -28 19 -41 0 -13 11 -35 25 -50 14
-15 25 -36 25 -47 0 -10 4 -19 10 -19 5 0 19 -18 30 -40 11 -22 24 -40 29 -40
5 0 15 -17 22 -37 6 -21 18 -45 25 -53 53 -59 72 -84 69 -91 -5 -6 44 -74 68
-94 19 -16 79 -105 70 -105 -4 0 6 -13 22 -29 17 -16 62 -63 100 -105 120
-132 184 -196 195 -196 5 0 10 -6 10 -14 0 -8 9 -17 19 -21 11 -3 24 -20 30
-37 10 -28 9 -35 -9 -53 -18 -17 -38 -21 -148 -26 -101 -6 -135 -11 -167 -28
-21 -12 -56 -21 -76 -21 -21 0 -47 -8 -61 -19 -13 -11 -40 -22 -60 -26 -20 -4
-44 -16 -54 -26 -9 -10 -28 -19 -41 -19 -13 0 -34 -10 -47 -22 -12 -13 -33
-24 -47 -26 -13 -2 -31 -11 -39 -20 -9 -9 -31 -25 -50 -35 -57 -29 -240 -195
-240 -217 0 -6 -6 -10 -12 -10 -7 0 -26 -17 -43 -36 -16 -20 -41 -47 -55 -60
-14 -13 -25 -28 -26 -32 -2 -19 -17 -41 -24 -37 -5 3 -11 -8 -15 -25 -4 -17
-15 -35 -25 -40 -10 -5 -23 -25 -30 -44 -6 -19 -17 -39 -24 -46 -8 -6 -17 -25
-20 -43 -3 -18 -15 -40 -26 -50 -11 -9 -20 -29 -20 -43 0 -15 -8 -41 -19 -58
-10 -17 -22 -48 -25 -69 -9 -49 11 -57 68 -29 30 15 69 23 141 27 55 4 134 14
175 23 94 20 404 23 465 4 22 -7 100 -17 174 -22 96 -7 141 -14 159 -26 15
-10 59 -20 101 -24 50 -5 78 -13 86 -24 7 -9 34 -18 71 -22 32 -3 71 -14 85
-25 15 -10 51 -21 80 -25 30 -3 68 -14 84 -24 20 -12 59 -19 112 -22 55 -3 90
-10 108 -22 20 -13 60 -20 150 -26 70 -5 133 -14 146 -22 34 -19 658 -19 709
0 19 7 87 17 151 22 77 5 128 14 150 26 19 9 65 19 104 22 41 2 82 12 100 22
17 10 57 21 90 25 33 4 68 14 78 23 9 8 43 19 74 23 31 4 59 12 62 18 9 13 57
31 85 31 13 0 34 8 47 18 13 11 38 22 54 26 17 4 39 16 50 25 19 18 104 36
106 23 0 -4 2 -15 4 -25 2 -10 -5 -25 -15 -35 -10 -9 -21 -29 -25 -44 -4 -14
-15 -34 -26 -44 -10 -9 -19 -21 -19 -27 0 -5 -11 -22 -25 -39 -14 -16 -25 -37
-25 -47 0 -10 -9 -26 -20 -36 -11 -10 -22 -33 -26 -51 -3 -18 -15 -40 -25 -50
-10 -9 -19 -30 -19 -46 0 -15 -9 -37 -19 -47 -11 -11 -23 -37 -26 -58 -4 -21
-15 -50 -25 -64 -10 -14 -21 -49 -24 -78 -3 -30 -14 -63 -26 -78 -15 -19 -20
-41 -20 -82 0 -39 -7 -68 -22 -96 -17 -32 -22 -57 -22 -125 l-1 -85 170 0
c104 0 189 5 219 13 27 7 126 17 220 22 102 5 187 15 211 24 22 8 83 17 135
22 59 4 104 13 119 23 14 8 59 19 100 23 46 4 92 15 116 27 22 12 58 21 83 21
26 0 58 8 76 19 17 10 56 22 86 26 30 4 66 15 80 25 14 10 47 21 74 24 29 4
59 15 71 26 13 12 35 20 57 20 20 0 46 9 61 20 14 11 42 22 62 25 21 2 46 12
56 21 10 9 37 20 60 25 23 5 53 19 67 29 13 11 36 20 49 20 14 0 38 11 55 25
16 14 39 25 50 25 11 0 31 11 43 24 16 17 30 23 44 19 15 -4 29 3 46 21 13 14
34 26 46 26 11 0 34 11 51 25 16 14 37 25 47 25 10 0 26 9 35 19 10 11 29 22
43 26 15 3 38 15 51 26 14 10 31 19 38 19 7 0 18 9 24 20 6 11 23 23 38 26 15
4 40 18 55 31 16 12 33 23 38 23 5 0 9 7 9 15 0 8 12 17 28 21 53 12 62 15 62
27 0 7 23 26 51 42 28 17 77 51 109 77 32 26 60 45 62 43 5 -6 139 102 155
125 8 11 20 20 28 20 7 0 16 9 20 19 3 11 13 22 21 25 38 14 149 114 335 301
215 216 219 220 246 262 10 15 26 34 35 41 10 7 18 18 18 24 0 6 18 27 39 48
22 21 65 67 97 102 95 105 257 269 328 333 37 33 90 81 117 108 27 26 51 47
53 47 3 0 16 10 29 23 14 12 41 33 61 47 42 28 101 72 131 95 11 9 30 21 41
28 42 23 79 52 92 69 7 10 21 18 31 18 10 0 30 9 44 20 14 11 38 26 54 33 45
21 103 58 103 68 0 4 18 14 40 20 22 7 47 20 56 31 10 10 27 18 40 18 13 0 32
10 43 21 11 12 34 23 52 25 18 2 38 13 46 24 7 10 30 22 51 26 20 4 44 12 52
20 9 7 38 18 65 24 28 6 55 18 62 27 7 8 29 17 49 20 20 2 47 12 60 22 13 10
45 22 71 26 26 4 60 15 74 26 16 11 44 19 67 19 22 0 58 10 83 23 26 14 64 24
94 25 27 2 67 11 88 22 24 13 67 22 115 26 42 3 97 14 122 24 31 12 95 22 205
30 88 6 171 13 185 15 149 25 193 27 425 22 177 -5 266 -11 305 -21 76 -21
166 -31 174 -18 3 5 -6 13 -21 17 -14 3 -38 15 -51 26 -14 10 -32 19 -42 19
-10 0 -28 9 -42 19 -14 11 -47 25 -74 32 -27 7 -53 18 -59 24 -5 7 -25 15 -43
19 -19 3 -45 15 -59 26 -15 12 -41 20 -62 20 -24 0 -49 9 -71 25 -23 17 -47
25 -75 25 -22 0 -51 7 -64 16 -12 9 -59 20 -104 26 -45 5 -93 16 -106 25 -17
11 -62 18 -140 24 -64 4 -154 17 -200 29 -80 21 -99 22 -435 18 -301 -4 -357
-7 -396 -22 -25 -10 -92 -21 -151 -25 -70 -5 -115 -13 -131 -23 -13 -9 -60
-19 -103 -23 -43 -4 -92 -15 -109 -25 -17 -10 -55 -20 -84 -23 -31 -4 -64 -15
-79 -27 -14 -11 -38 -20 -54 -20 -15 0 -49 -11 -75 -25 -26 -14 -59 -25 -74
-25 -15 0 -35 -8 -44 -19 -9 -10 -35 -21 -57 -24 -23 -3 -51 -14 -62 -25 -12
-11 -37 -23 -54 -27 -18 -3 -36 -11 -39 -17 -3 -5 -25 -18 -48 -29 -22 -10
-48 -23 -56 -28 -8 -6 -43 -22 -77 -38 -35 -15 -65 -35 -69 -45 -3 -10 -19
-20 -40 -24 -19 -3 -37 -10 -40 -15 -7 -11 -109 -79 -119 -79 -4 0 -19 -11
-34 -25 -60 -58 -69 -65 -78 -65 -11 0 -76 -48 -108 -80 -12 -11 -26 -20 -33
-20 -7 0 -12 -7 -12 -15 0 -8 -10 -20 -22 -26 -13 -7 -29 -20 -36 -31 -7 -10
-17 -18 -22 -18 -5 0 -20 -10 -34 -22 -31 -28 -89 -78 -186 -160 -41 -35 -82
-71 -92 -80 -10 -10 -22 -18 -28 -18 -5 0 -34 -20 -64 -45 -31 -25 -59 -45
-62 -45 -4 0 -22 -11 -40 -25 -18 -14 -37 -25 -43 -25 -5 0 -16 -8 -23 -18 -7
-10 -31 -28 -53 -39 -92 -49 -105 -57 -105 -69 0 -6 -15 -15 -34 -18 -18 -4
-41 -15 -51 -26 -10 -11 -26 -20 -35 -20 -9 0 -31 -11 -50 -25 -19 -14 -44
-25 -55 -25 -12 0 -30 -9 -39 -19 -10 -11 -36 -23 -58 -26 -27 -5 -38 -11 -34
-21 3 -9 -6 -15 -32 -20 -20 -3 -49 -14 -64 -25 -15 -10 -48 -23 -74 -29 -26
-6 -58 -20 -72 -30 -13 -11 -37 -20 -52 -20 -15 0 -37 -8 -49 -19 -11 -10 -45
-22 -74 -25 -28 -4 -60 -14 -69 -23 -9 -8 -44 -18 -76 -22 -33 -4 -72 -15 -87
-25 -15 -10 -59 -21 -104 -25 -42 -5 -88 -15 -102 -24 -15 -10 -56 -18 -111
-21 -59 -4 -96 -11 -114 -23 -22 -14 -61 -18 -209 -24 -100 -4 -209 -13 -241
-20 -75 -16 -340 -17 -419 -1 -33 7 -116 15 -185 18 -162 6 -210 11 -227 25
-7 7 -21 13 -31 14 -120 12 -183 17 -188 16 -3 -1 -11 5 -17 13 -8 11 -40 20
-93 26 -44 6 -98 19 -119 30 -22 11 -55 20 -73 20 -19 0 -49 9 -66 20 -18 10
-49 21 -70 24 -20 3 -52 14 -71 25 -19 11 -53 25 -75 31 -22 6 -40 15 -40 20
0 5 -19 14 -42 20 -24 6 -48 17 -53 25 -6 7 -27 20 -48 28 -20 9 -37 21 -37
26 0 6 -9 11 -20 11 -11 0 -29 9 -40 20 -11 11 -34 26 -52 34 -18 7 -50 30
-72 50 -21 20 -40 36 -43 36 -2 0 -14 9 -26 21 -12 11 -35 27 -51 36 -16 8
-44 30 -62 49 -19 18 -43 38 -54 44 -11 6 -20 17 -20 25 0 7 -9 17 -20 20 -11
3 -20 10 -20 14 0 4 -24 33 -52 63 -60 62 -98 109 -98 121 0 4 -10 19 -22 32
-13 13 -36 38 -51 57 -15 18 -34 40 -42 48 -7 8 -16 27 -20 41 -4 15 -18 36
-31 48 -13 11 -24 27 -24 35 0 7 -8 24 -19 37 -10 13 -23 41 -30 61 -7 20 -18
41 -25 48 -8 6 -17 26 -20 44 -4 19 -13 39 -21 46 -8 7 -15 20 -15 30 0 9 -11
33 -24 52 -13 20 -27 55 -31 79 -4 24 -15 58 -25 74 -9 17 -20 54 -23 83 -4
29 -14 68 -23 85 -10 19 -19 75 -25 142 -4 61 -15 128 -23 150 -12 31 -15 89
-15 250 -1 210 3 260 20 249 5 -3 9 3 10 13 2 94 18 226 26 231 14 9 33 78 33
121 0 18 9 48 19 65 11 17 22 53 26 79 5 31 14 53 26 60 12 8 19 23 19 44 0
19 8 41 19 52 11 11 25 38 31 59 5 22 16 45 24 51 8 7 17 23 20 36 3 13 17 35
31 49 14 14 25 32 25 40 0 15 130 188 176 235 13 13 24 28 24 32 0 5 7 9 15 9
9 0 18 6 21 14 3 8 35 34 70 57 35 24 64 46 64 51 0 4 17 16 38 26 67 34 87
47 110 70 12 12 33 22 46 22 13 0 35 9 49 20 14 11 46 24 72 29 25 5 53 15 63
24 9 8 47 18 85 22 42 4 73 13 84 23 15 15 48 17 296 17 249 0 280 -2 291 -17
8 -11 34 -19 77 -24 35 -3 71 -13 79 -20 9 -7 39 -18 67 -24 28 -6 59 -20 69
-31 9 -10 27 -19 40 -19 13 0 35 -11 50 -25 15 -14 33 -25 41 -25 8 0 27 -9
41 -20 15 -11 59 -45 97 -75 39 -30 81 -62 94 -72 39 -30 141 -136 141 -148 0
-11 30 -50 82 -107 15 -16 30 -43 33 -59 4 -16 10 -27 15 -24 4 3 14 -10 21
-28 7 -17 20 -42 30 -54 9 -13 20 -40 24 -60 4 -20 15 -48 26 -61 17 -22 19
-42 19 -172 0 -131 -2 -150 -20 -172 -19 -25 -42 -102 -33 -112 2 -2 -4 -7
-15 -10 -11 -4 -25 -20 -31 -37 -5 -16 -17 -32 -26 -35 -8 -3 -15 -11 -15 -18
0 -12 -106 -116 -119 -116 -4 0 -17 -11 -29 -25 -12 -14 -29 -25 -38 -25 -9 0
-33 -10 -52 -22 -27 -16 -56 -23 -117 -26 -93 -5 -95 -4 -95 89 0 29 -6 51
-15 59 -8 7 -20 31 -27 54 -6 22 -17 48 -24 56 -6 8 -19 30 -28 48 -9 18 -21
30 -26 27 -5 -3 -11 3 -15 14 -3 10 -32 43 -63 72 -80 75 -94 85 -135 98 -19
7 -38 18 -41 26 -2 7 -26 17 -53 21 -26 3 -68 15 -92 26 -38 17 -61 20 -151
16 -71 -2 -113 -8 -124 -17 -9 -7 -37 -18 -63 -22 -25 -5 -54 -16 -64 -25 -9
-8 -33 -19 -53 -25 -20 -5 -36 -16 -36 -24 0 -7 -10 -17 -22 -21 -27 -8 -144
-127 -164 -166 -8 -15 -19 -28 -24 -28 -5 0 -12 -17 -16 -37 -3 -21 -14 -47
-24 -58 -29 -33 -39 -215 -24 -439 3 -57 10 -86 24 -104 13 -16 20 -40 20 -67
0 -27 7 -51 20 -68 11 -13 25 -48 31 -77 6 -28 17 -54 24 -56 7 -3 16 -20 19
-38 3 -17 15 -39 26 -49 11 -9 20 -23 20 -32 0 -8 9 -19 19 -25 11 -5 25 -26
31 -45 6 -19 16 -35 21 -35 4 0 15 -13 24 -30 9 -17 22 -30 30 -30 8 0 15 -5
15 -12 0 -6 32 -42 70 -79 39 -38 70 -73 70 -79 0 -5 5 -10 10 -10 6 0 21 -10
34 -22 25 -25 63 -49 112 -72 17 -9 34 -22 37 -30 3 -8 22 -18 42 -22 19 -3
40 -15 46 -25 5 -11 18 -19 28 -19 28 0 82 -21 76 -30 -5 -8 42 -20 80 -20 12
0 34 -9 48 -20 18 -14 48 -23 94 -27 37 -3 82 -13 98 -22 44 -24 370 -23 435
1 25 9 74 20 110 24 35 3 75 13 88 22 13 8 47 19 75 23 29 5 57 16 64 25 6 8
31 18 55 21 24 3 50 12 59 19 9 8 36 21 62 30 25 8 51 22 58 30 6 8 19 14 29
14 9 0 28 8 41 18 13 10 36 23 52 30 15 6 27 16 27 21 0 5 15 14 33 22 17 7
58 33 89 58 98 78 116 91 125 91 5 0 39 32 77 70 37 39 72 70 77 70 5 0 9 6 9
13 0 7 12 24 28 39 39 37 72 84 72 101 0 9 8 18 18 22 11 3 24 17 30 30 6 14
16 25 22 25 9 0 28 31 64 106 8 17 22 36 30 44 9 7 16 21 16 30 0 10 11 31 24
47 13 15 26 45 30 66 4 20 11 37 15 37 11 0 31 55 31 85 0 12 9 33 19 47 11
14 23 49 27 79 3 30 13 65 22 79 10 16 18 62 23 131 4 59 14 133 24 164 12 43
16 91 14 191 -1 74 -5 134 -9 134 -11 0 -30 116 -30 181 0 34 -7 68 -19 89
-10 19 -21 59 -25 88 -4 29 -16 67 -26 85 -11 18 -20 44 -20 58 0 14 -11 40
-25 59 -14 19 -25 46 -25 60 0 15 -9 35 -19 44 -11 10 -22 30 -26 44 -3 15
-15 36 -25 47 -10 11 -21 31 -25 45 -4 14 -16 33 -26 43 -11 10 -19 23 -19 30
0 7 -9 18 -20 25 -11 7 -20 18 -20 26 0 14 -44 76 -80 111 -11 12 -20 26 -20
33 0 7 -7 12 -16 12 -9 0 -18 9 -21 20 -3 11 -9 20 -13 20 -5 0 -54 44 -109
98 -111 108 -122 117 -201 167 -30 19 -58 42 -63 50 -4 8 -17 15 -27 15 -10 0
-31 11 -46 25 -15 14 -32 25 -39 25 -7 0 -23 8 -36 19 -13 10 -35 22 -49 26
-14 4 -33 15 -42 25 -9 10 -34 21 -54 25 -21 4 -44 15 -51 25 -7 9 -23 18 -36
18 -14 0 -42 11 -63 26 -21 14 -50 26 -65 26 -14 0 -37 8 -50 19 -13 10 -43
22 -66 26 -23 3 -54 15 -67 26 -17 13 -41 20 -73 20 -28 1 -61 9 -79 20 -21
13 -64 22 -125 28 -52 5 -112 17 -134 27 -35 14 -84 17 -365 19 -179 1 -361
-1 -405 -5z"/>
</g>
</svg>
